<svg width="72" height="72" viewBox="0 0 72 72" fill="none" xmlns="http://www.w3.org/2000/svg">
<g clip-path="url(#clip0_7182_446541)">
<path d="M4.67985 48.24C4.67985 42.48 6.26503 36.2118 8.55603 31.8843C10.847 27.5567 36.8966 0.42285 40.3199 0.180028C43.7431 -0.0627943 52.34 5.15561 60.2314 13.0469C68.1227 20.9383 67.8682 25.0112 68.1227 28.3205C68.3773 31.6297 61.3769 35.3208 60.486 41.303C59.595 47.2851 61.4017 52.34 61.0198 55.26C60.638 58.18 55.5751 63.8844 51.0673 63.7041C46.5595 63.5238 39.6122 63.7041 36.5575 63.7041C33.5028 63.7041 21.284 64.8071 15.5564 65.3587C13.9442 65.2738 10.2616 64.6459 8.42875 62.8131C6.13772 60.5221 4.67985 54 4.67985 48.24Z" fill="#FEE2AC"/>
<path d="M34.5794 52.5018C31.6994 51.9618 23.0594 53.4018 21.4394 53.0418C19.8194 52.6818 18.7394 51.7818 19.0994 49.2618C19.4594 46.7418 19.4594 40.6219 19.0994 34.5019C18.7394 28.3818 15.3194 25.3218 17.8394 21.0018C20.3594 16.6818 27.9198 17.2219 30.7996 17.4018C33.6794 17.5818 41.4194 19.7418 45.1996 22.2618C46.7738 23.3112 48.8141 25.9772 51.4996 28.5618C53.6099 30.5929 56.5396 33.2418 58.3396 34.5019C60.1396 35.7619 59.9596 37.2018 59.7796 39.0018C59.5996 40.8018 54.3794 48.9018 54.3794 48.9018C54.3794 48.9018 48.6198 56.8219 44.1196 56.8218C39.6194 56.8218 37.4594 53.0418 34.5794 52.5018Z" fill="#FDC975"/>
<path d="M42.4221 23.9729C42.1564 23.784 41.8267 23.7081 41.5052 23.7616C41.1837 23.8152 40.8965 23.994 40.7064 24.2589V24.2589C40.6124 24.3898 40.5454 24.5381 40.5093 24.6952C40.4732 24.8523 40.4688 25.015 40.4963 25.1738C40.5239 25.3326 40.5828 25.4844 40.6697 25.6201C40.7565 25.7559 40.8696 25.873 41.0022 25.9646C41.2049 26.114 41.4506 26.1935 41.7023 26.1914C41.8953 26.1891 42.0851 26.1415 42.2564 26.0525C42.4276 25.9634 42.5756 25.8354 42.6883 25.6787V25.6787C42.7815 25.5479 42.8481 25.4001 42.8843 25.2436C42.9204 25.087 42.9253 24.925 42.8987 24.7666C42.8722 24.6081 42.8147 24.4565 42.7295 24.3204C42.6443 24.1842 42.5332 24.0661 42.4023 23.9729H42.4221Z" fill="#333333"/>
<path d="M39.622 27.4442C39.4144 27.1947 39.1168 27.0372 38.7937 27.0058C38.4706 26.9744 38.1483 27.0717 37.8965 27.2766C36.2169 28.6667 34.2557 29.6758 32.1482 30.2346C31.8253 30.2764 31.5322 30.4448 31.3334 30.7028C31.1346 30.9607 31.0465 31.2871 31.0883 31.61C31.1301 31.933 31.2986 32.2261 31.5565 32.4248C31.8145 32.6236 32.1408 32.7118 32.4638 32.6699C32.5685 32.6838 32.6746 32.6838 32.7793 32.6699C35.2235 32.0151 37.4994 30.8452 39.4544 29.2387C39.5794 29.1358 39.6828 29.0093 39.7589 28.8664C39.835 28.7234 39.8821 28.5669 39.8977 28.4058C39.9133 28.2446 39.8969 28.082 39.8496 27.9272C39.8023 27.7723 39.725 27.6283 39.622 27.5034V27.4442Z" fill="#333333"/>
<path d="M63.6297 32.2862C62.6543 32.2862 61.7189 32.6736 61.0292 33.3633C60.3395 34.0531 59.952 34.9885 59.952 35.9639V36.6146C59.9487 39.072 59.0788 41.4496 57.4953 43.3288C55.9119 45.208 53.7163 46.4686 51.2951 46.8886C51.9462 45.9071 52.2895 44.7535 52.2811 43.5757V42.7277C52.2811 41.1587 51.6578 39.654 50.5483 38.5446C49.4389 37.4351 47.9341 36.8118 46.3652 36.8118C44.7962 36.8118 43.2914 37.4351 42.182 38.5446C41.0725 39.654 40.4493 41.1587 40.4493 42.7277V43.5165C40.4544 44.6709 40.7971 45.7985 41.4352 46.7604C39.118 46.2524 37.0425 44.9713 35.5499 43.1274C34.0573 41.2836 33.2363 38.9868 33.222 36.6146V36.0033C33.1731 35.0596 32.7638 34.1706 32.0786 33.5199C31.3933 32.8692 30.4843 32.5064 29.5393 32.5064C28.5943 32.5064 27.6854 32.8692 27.0001 33.5199C26.3148 34.1706 25.9055 35.0596 25.8567 36.0033V36.6146C25.8416 39.0528 26.3352 41.4673 27.3061 43.7039H18.9647V31.3495C18.9647 31.0828 18.8782 30.8233 18.7182 30.61C18.5582 30.3967 18.3333 30.241 18.0773 30.1663C14.8721 29.2376 12.055 27.2936 10.0494 24.6266C8.04379 21.9595 6.95805 18.7135 6.95539 15.3765V14.7652C6.95539 14.441 7.0842 14.13 7.31348 13.9007C7.54277 13.6714 7.85375 13.5426 8.17801 13.5426C8.50227 13.5426 8.81324 13.6714 9.04253 13.9007C9.27181 14.13 9.40063 14.441 9.40063 14.7652V15.3765C9.39674 17.0718 9.72712 18.7512 10.3729 20.3187C11.0186 21.8862 11.9671 23.3109 13.164 24.5115C14.3609 25.7121 15.7828 26.6649 17.3483 27.3154C18.9138 27.966 20.5922 28.3015 22.2874 28.3028H28.2033C29.8969 28.3041 31.5742 27.9718 33.1394 27.3249C34.7046 26.6779 36.1271 25.7291 37.3255 24.5324C38.524 23.3358 39.4751 21.9148 40.1244 20.3506C40.7737 18.7864 41.1086 17.1096 41.1099 15.416V14.8047C41.1374 14.4981 41.2786 14.2129 41.5058 14.0052C41.7329 13.7975 42.0296 13.6823 42.3374 13.6823C42.6452 13.6823 42.9419 13.7975 43.1691 14.0052C43.3962 14.2129 43.5375 14.4981 43.565 14.8047V15.416C43.5715 17.2848 43.2373 19.1392 42.579 20.8882C42.4613 21.1915 42.4689 21.5292 42.6002 21.8269C42.7315 22.1246 42.9757 22.358 43.279 22.4756C43.5824 22.5933 43.92 22.5857 44.2177 22.4544C44.5154 22.3231 44.7488 22.0789 44.8665 21.7756C45.645 19.7458 46.0428 17.5899 46.0398 15.416V14.8047C45.9909 13.8609 45.5816 12.972 44.8964 12.3212C44.2111 11.6705 43.3021 11.3077 42.3571 11.3077C41.4121 11.3077 40.5032 11.6705 39.8179 12.3212C39.1326 12.972 38.7233 13.8609 38.6745 14.8047V15.416C38.6692 17.8805 37.7923 20.2638 36.199 22.144C34.6056 24.0243 32.3985 25.2803 29.9682 25.6899C30.6175 24.7112 30.9607 23.5614 30.9542 22.3869V21.5291C30.9542 19.9601 30.3309 18.4554 29.2215 17.3459C28.1121 16.2365 26.6073 15.6132 25.0383 15.6132C23.4693 15.6132 21.9646 16.2365 20.8552 17.3459C19.7457 18.4554 19.1224 19.9601 19.1224 21.5291V22.3869C19.1295 23.5379 19.4721 24.6618 20.1084 25.6209C17.774 25.1186 15.682 23.832 14.1805 21.9753C12.679 20.1187 11.8586 17.8038 11.8557 15.416V14.8047C11.8557 13.8293 11.4683 12.8938 10.7785 12.2041C10.0888 11.5144 9.1534 11.127 8.17801 11.127C7.20262 11.127 6.26717 11.5144 5.57747 12.2041C4.88776 12.8938 4.50029 13.8293 4.50029 14.8047V15.416C4.47788 19.3377 5.76525 23.1547 8.15829 26.2618C10.297 29.0393 13.1992 31.1329 16.5096 32.2862V44.9265C16.5096 45.0879 16.5415 45.2477 16.6036 45.3966C16.6656 45.5456 16.7566 45.6808 16.8711 45.7945C16.9857 45.9082 17.1217 45.998 17.2711 46.0589C17.4206 46.1197 17.5807 46.1504 17.742 46.1491H17.959V66.0857C17.9865 66.3923 18.1277 66.6775 18.3549 66.8852C18.582 67.0929 18.8787 67.208 19.1865 67.208C19.4943 67.208 19.791 67.0929 20.0182 66.8852C20.2453 66.6775 20.3866 66.3923 20.4141 66.0857V46.1491H28.6273C28.9034 46.5731 29.1893 46.9773 29.4851 47.3816L29.7415 47.6872V66.0857C29.769 66.3923 29.9102 66.6775 30.1374 66.8852C30.3645 67.0929 30.6612 67.208 30.969 67.208C31.2768 67.208 31.5735 67.0929 31.8007 66.8852C32.0278 66.6775 32.1691 66.3923 32.1966 66.0857V50.2015C33.8701 51.5959 35.785 52.6719 37.8463 53.3764V66.0857C37.8463 66.4099 37.9751 66.7209 38.2044 66.9502C38.4336 67.1795 38.7446 67.3083 39.0689 67.3083C39.3931 67.3083 39.7041 67.1795 39.9334 66.9502C40.1627 66.7209 40.2915 66.4099 40.2915 66.0857V52.5087C40.2948 52.2412 40.2095 51.9802 40.049 51.7662C39.8885 51.5522 39.6618 51.3973 39.4041 51.3255C36.2137 50.3988 33.4082 48.4659 31.4057 45.8149C29.4033 43.164 28.3111 39.9369 28.2921 36.6146V36.0033C28.3196 35.6967 28.4608 35.4116 28.688 35.2039C28.9151 34.9962 29.2118 34.881 29.5196 34.881C29.8274 34.881 30.1241 34.9962 30.3513 35.2039C30.5784 35.4116 30.7197 35.6967 30.7472 36.0033V36.6146C30.768 40.0162 32.1318 43.2719 34.5418 45.6726C36.9518 48.0733 40.2126 49.4247 43.6143 49.4324H49.5302C52.9327 49.4247 56.1946 48.0737 58.6061 45.6732C61.0177 43.2728 62.3837 40.0171 62.4071 36.6146V36.0033C62.4071 35.6791 62.5359 35.3681 62.7652 35.1388C62.9945 34.9095 63.3055 34.7807 63.6297 34.7807C63.954 34.7807 64.265 34.9095 64.4942 35.1388C64.7235 35.3681 64.8523 35.6791 64.8523 36.0033V36.6146C64.8455 39.9878 63.7271 43.2647 61.6702 45.9382C59.6134 48.6118 56.7328 50.5329 53.4741 51.4044C53.2144 51.4755 52.9852 51.6296 52.8214 51.8433C52.6575 52.0569 52.5682 52.3184 52.567 52.5876V61.4614C52.5517 61.6319 52.5721 61.8036 52.6268 61.9658C52.6816 62.1279 52.7695 62.2769 52.8849 62.4032C53.0004 62.5295 53.1409 62.6304 53.2975 62.6994C53.4541 62.7684 53.6234 62.804 53.7945 62.804C53.9657 62.804 54.1349 62.7684 54.2915 62.6994C54.4481 62.6304 54.5887 62.5295 54.7041 62.4032C54.8196 62.2769 54.9075 62.1279 54.9623 61.9658C55.017 61.8036 55.0374 61.6319 55.0221 61.4614V53.4947C58.5852 52.331 61.6905 50.0732 63.8962 47.0426C66.1019 44.012 67.2956 40.3629 67.3074 36.6146V36.0033C67.3074 35.0279 66.92 34.0925 66.2303 33.4028C65.5406 32.7131 64.6051 32.3256 63.6297 32.3256V32.2862ZM21.6071 21.5291C21.6729 20.6589 22.0651 19.8457 22.705 19.2524C23.3449 18.659 24.1854 18.3293 25.058 18.3293C25.9307 18.3293 26.7712 18.659 27.4111 19.2524C28.051 19.8457 28.4432 20.6589 28.509 21.5291V22.3869C28.4432 23.2571 28.051 24.0703 27.4111 24.6636C26.7712 25.257 25.9307 25.5866 25.058 25.5866C24.1854 25.5866 23.3449 25.257 22.705 24.6636C22.0651 24.0703 21.6729 23.2571 21.6071 22.3869V21.5291ZM49.8555 43.5165C49.8915 43.9916 49.8289 44.4691 49.6718 44.9189C49.5147 45.3687 49.2663 45.7812 48.9424 46.1306C48.6184 46.48 48.2258 46.7588 47.7891 46.9494C47.3524 47.14 46.8811 47.2384 46.4046 47.2384C45.9281 47.2384 45.4568 47.14 45.0201 46.9494C44.5834 46.7588 44.1908 46.48 43.8668 46.1306C43.5429 45.7812 43.2945 45.3687 43.1374 44.9189C42.9803 44.4691 42.9177 43.9916 42.9536 43.5165V42.6686C43.0195 41.7984 43.4116 40.9852 44.0515 40.3919C44.6915 39.7985 45.5319 39.4688 46.4046 39.4688C47.2773 39.4688 48.1177 39.7985 48.7576 40.3919C49.3976 40.9852 49.7897 41.7984 49.8555 42.6686V43.5165Z" fill="#333333"/>
<path d="M54.6564 65.2073C54.4563 65.0115 54.1945 64.8911 53.9157 64.8663C53.6368 64.8416 53.3579 64.9141 53.1264 65.0715C52.8949 65.229 52.725 65.4617 52.6456 65.7302C52.5661 65.9986 52.582 66.2863 52.6905 66.5444C52.799 66.8025 52.9935 67.0151 53.2409 67.1461C53.4883 67.2771 53.7735 67.3185 54.0479 67.2632C54.3224 67.2079 54.5693 67.0594 54.7467 66.8428C54.9241 66.6262 55.0211 66.3549 55.0212 66.0749C55.0192 65.7488 54.888 65.4369 54.6564 65.2073V65.2073Z" fill="#333333"/>
<path d="M25.0684 50.4176C24.7415 50.4176 24.4281 50.5475 24.1969 50.7786C23.9658 51.0097 23.8359 51.3232 23.8359 51.6501V66.0849C23.8634 66.3915 24.0047 66.6766 24.2318 66.8844C24.459 67.0921 24.7557 67.2072 25.0635 67.2072C25.3713 67.2072 25.668 67.0921 25.8951 66.8844C26.1223 66.6766 26.2635 66.3915 26.291 66.0849V51.6106C26.2833 51.2915 26.1511 50.9881 25.9226 50.7652C25.6942 50.5423 25.3876 50.4175 25.0684 50.4176V50.4176Z" fill="#333333"/>
<path d="M61.669 14.5573C61.3422 14.5573 61.0287 14.6871 60.7976 14.9182C60.5664 15.1494 60.4366 15.4629 60.4366 15.7897V17.3081C60.4213 17.4786 60.4417 17.6504 60.4964 17.8125C60.5511 17.9747 60.639 18.1236 60.7545 18.2499C60.87 18.3762 61.0105 18.4771 61.1671 18.5461C61.3237 18.6151 61.493 18.6508 61.6641 18.6508C61.8353 18.6508 62.0045 18.6151 62.1611 18.5461C62.3177 18.4771 62.4582 18.3762 62.5737 18.2499C62.6892 18.1236 62.7771 17.9747 62.8318 17.8125C62.8866 17.6504 62.907 17.4786 62.8917 17.3081V15.7897C62.893 15.6283 62.8623 15.4683 62.8014 15.3188C62.7406 15.1694 62.6507 15.0334 62.5371 14.9188C62.4234 14.8043 62.2882 14.7133 62.1392 14.6513C61.9902 14.5892 61.8304 14.5572 61.669 14.5573V14.5573Z" fill="#333333"/>
<path d="M61.669 21.8245C61.3422 21.8245 61.0287 21.9543 60.7976 22.1854C60.5664 22.4166 60.4366 22.7301 60.4366 23.0569V24.5754C60.4213 24.7458 60.4417 24.9176 60.4964 25.0797C60.5511 25.2419 60.639 25.3908 60.7545 25.5171C60.87 25.6434 61.0105 25.7443 61.1671 25.8133C61.3237 25.8823 61.493 25.918 61.6641 25.918C61.8353 25.918 62.0045 25.8823 62.1611 25.8133C62.3177 25.7443 62.4582 25.6434 62.5737 25.5171C62.6892 25.3908 62.7771 25.2419 62.8318 25.0797C62.8866 24.9176 62.907 24.7458 62.8917 24.5754V23.0964C62.8983 22.9317 62.8716 22.7674 62.8131 22.6134C62.7547 22.4593 62.6657 22.3186 62.5515 22.1998C62.4373 22.081 62.3002 21.9865 62.1486 21.922C61.997 21.8575 61.8338 21.8243 61.669 21.8245V21.8245Z" fill="#333333"/>
<path d="M66.0842 18.9741H64.5559C64.2494 19.0016 63.9642 19.1429 63.7565 19.37C63.5488 19.5972 63.4336 19.8939 63.4336 20.2017C63.4336 20.5095 63.5488 20.8062 63.7565 21.0333C63.9642 21.2605 64.2494 21.4017 64.5559 21.4292H66.0842C66.3908 21.4017 66.676 21.2605 66.8837 21.0333C67.0914 20.8062 67.2066 20.5095 67.2066 20.2017C67.2066 19.8939 67.0914 19.5972 66.8837 19.37C66.676 19.1429 66.3908 19.0016 66.0842 18.9741V18.9741Z" fill="#333333"/>
<path d="M58.7776 18.9744H57.2493C56.9427 19.0019 56.6575 19.1431 56.4498 19.3703C56.2421 19.5974 56.127 19.8941 56.127 20.2019C56.127 20.5097 56.2421 20.8064 56.4498 21.0336C56.6575 21.2607 56.9427 21.402 57.2493 21.4295H58.7776C59.0842 21.402 59.3693 21.2607 59.577 21.0336C59.7847 20.8064 59.8999 20.5097 59.8999 20.2019C59.8999 19.8941 59.7847 19.5974 59.577 19.3703C59.3693 19.1431 59.0842 19.0019 58.7776 18.9744V18.9744Z" fill="#333333"/>
<path d="M31.4666 4.5C31.1466 4.50767 30.8421 4.63956 30.6176 4.86774C30.3931 5.09593 30.2661 5.40252 30.2637 5.72262V7.2509C30.2912 7.55747 30.4324 7.84266 30.6596 8.05037C30.8867 8.25807 31.1834 8.37325 31.4912 8.37325C31.799 8.37325 32.0957 8.25807 32.3229 8.05037C32.55 7.84266 32.6913 7.55747 32.7188 7.2509V5.72262C32.7162 5.39746 32.5852 5.0865 32.3543 4.85749C32.1235 4.62849 31.8115 4.49999 31.4863 4.5H31.4666Z" fill="#333333"/>
<path d="M31.4676 11.8049C31.1459 11.8127 30.8399 11.9459 30.6152 12.1762C30.3904 12.4065 30.2646 12.7156 30.2647 13.0374V14.5558C30.2494 14.7263 30.2698 14.898 30.3245 15.0602C30.3793 15.2223 30.4672 15.3713 30.5826 15.4976C30.6981 15.6239 30.8386 15.7248 30.9952 15.7938C31.1519 15.8628 31.3211 15.8984 31.4922 15.8984C31.6634 15.8984 31.8326 15.8628 31.9892 15.7938C32.1459 15.7248 32.2864 15.6239 32.4018 15.4976C32.5173 15.3713 32.6052 15.2223 32.66 15.0602C32.7147 14.898 32.7351 14.7263 32.7198 14.5558V13.0374C32.7198 12.7105 32.5899 12.3971 32.3588 12.1659C32.1277 11.9348 31.8142 11.8049 31.4873 11.8049H31.4676Z" fill="#333333"/>
<path d="M35.8845 8.91704H34.366C34.1956 8.90175 34.0238 8.92212 33.8617 8.97686C33.6995 9.0316 33.5506 9.11951 33.4243 9.23499C33.298 9.35047 33.1971 9.49099 33.1281 9.64759C33.0591 9.80419 33.0234 9.97345 33.0234 10.1446C33.0234 10.3157 33.0591 10.485 33.1281 10.6416C33.1971 10.7982 33.298 10.9387 33.4243 11.0542C33.5506 11.1697 33.6995 11.2576 33.8617 11.3123C34.0238 11.3671 34.1956 11.3874 34.366 11.3721H35.8845C36.0549 11.3874 36.2267 11.3671 36.3888 11.3123C36.551 11.2576 36.6999 11.1697 36.8262 11.0542C36.9525 10.9387 37.0534 10.7982 37.1224 10.6416C37.1914 10.485 37.2271 10.3157 37.2271 10.1446C37.2271 9.97345 37.1914 9.80419 37.1224 9.64759C37.0534 9.49099 36.9525 9.35047 36.8262 9.23499C36.6999 9.11951 36.551 9.0316 36.3888 8.97686C36.2267 8.92212 36.0549 8.90175 35.8845 8.91704V8.91704Z" fill="#333333"/>
<path d="M28.5778 8.91728H27.0594C26.889 8.90199 26.7172 8.92237 26.555 8.97711C26.3929 9.03185 26.2439 9.11976 26.1176 9.23523C25.9913 9.35071 25.8905 9.49123 25.8214 9.64783C25.7524 9.80444 25.7168 9.9737 25.7168 10.1448C25.7168 10.316 25.7524 10.4852 25.8214 10.6418C25.8905 10.7984 25.9913 10.939 26.1176 11.0544C26.2439 11.1699 26.3929 11.2578 26.555 11.3126C26.7172 11.3673 26.889 11.3877 27.0594 11.3724H28.5778C28.7483 11.3877 28.92 11.3673 29.0822 11.3126C29.2443 11.2578 29.3933 11.1699 29.5196 11.0544C29.6459 10.939 29.7468 10.7984 29.8158 10.6418C29.8848 10.4852 29.9204 10.316 29.9204 10.1448C29.9204 9.9737 29.8848 9.80444 29.8158 9.64783C29.7468 9.49123 29.6459 9.35071 29.5196 9.23523C29.3933 9.11976 29.2443 9.03185 29.0822 8.97711C28.92 8.92237 28.7483 8.90199 28.5778 8.91728V8.91728Z" fill="#333333"/>
</g>
<defs>
<clipPath id="clip0_7182_446541">
<rect width="72" height="72" fill="white"/>
</clipPath>
</defs>
</svg>
